PathFileType	4	(X/Y/Z)	Sub_1_bilateral_squat02_.centers_.trc
DataRate	CameraRate	NumFrames	NumMarkers	Units	OrigDataRate	OrigDataStartFrame	OrigNumFrames
60.0	60.0	4	120	mm	100.0	180	597
Frame#	Time		Back_Left_Head		Back_Right_Head		C7		CenterHead		COP_Projection		COP_Projection_GroundY		F_LHIP		F_RHIP		Front_Left_Head		Front_Right_Head		Girdle_Center		Head		JC.L.Elbow		JC.L.Hand		JC.L.Wrist		JC.R.Elbow		JC.R.Hand		JC.R.Wrist		JC_L.Hip		JC_R.Hip		L.Ankle.Center		L.Ankle.Lateral		L.Elbow		L.Hand		L.Heel		L.Hip		L.Iliac.Crest		L.Knee.Center		L.Knee.Lateral		L.PSIS		L.Shank.Front		L.Shank.Rear		L.Shank.Upper		L.Shoulder		L.Thigh.Front		L.Thigh.Rear		L.Thigh.Upper		L.Toe		L.Wrist.Radial		L.Wrist.Ulnar		LAB_Origin		LAB_X		LAB_Y		LAB_Z		LDFA midpoint		LEFT_FOOT_BORDER1		LEFT_FOOT_BORDER2		LEFT_FOOT_BORDER3		LForearmX		LForearmY		LForearmZ		LHandX		LHandY		LHandZ		LHIP		LLowerArmX		LLowerArmY		LLowerArmZ		LMID_MALLEOLI_V		LPFA midpoint		mid_ASIS		Mid_ASIS_Projection		Mid_ASIS_Projection_Lateral		Mid_ASIS_Projection_LateralZ		North_Virtual_Origin		Offset		Pelvis.Center		Pelvis_Center		PelvisX		PelvisY		PelvisZ		R.Ankle.Center		R.Ankle.Lateral		R.Elbow		R.Hand		R.Heel		R.Hip		R.Iliac.Crest		R.Knee.Center		R.Knee.Lateral		R.Shank.Front		R.Shank.Rear		R.Shank.Upper		R.Shoulder		R.Thigh.Front		R.Thigh.Rear		R.Thigh.Upper		R.Toe		R.Wrist.Radial		R.Wrist.Ulnar		RDFA midpoint		RForearmX		RForearmY		RForearmZ		RHandX		RHandY		RHandZ		RHIP		RIGHT_FOOT_BORDER1		RIGHT_FOOT_BORDER2		RIGHT_FOOT_BORDER3		RLowerArmX		RLowerArmY		RLowerArmZ		RMID_MALLEOLI_V		RPFA midpoint		V.Sacral		v3d_lab_lat_distal		v3d_lab_lat_prox		v3d_lab_med_distal		v3d_lab_med_prox		V_L.Hip.skin		V_R.Hip.skin		V_V.Sacral.skin		Virtual_Lab_Origin		X.Shell.Lower.Shank.Left		X.Shell.Lower.Shank.Right		X.Shell.Lower.Thigh.Left		X.Shell.Lower.Thigh.Right		Z_Virtual_Lab_Origin
			X1	Y1	Z1	X2	Y2	Z2	X3	Y3	Z3	X4	Y4	Z4	X5	Y5	Z5	X6	Y6	Z6	X7	Y7	Z7	X8	Y8	Z8	X9	Y9	Z9	X10	Y10	Z10	X11	Y11	Z11	X12	Y12	Z12	X13	Y13	Z13	X14	Y14	Z14	X15	Y15	Z15	X16	Y16	Z16	X17	Y17	Z17	X18	Y18	Z18	X19	Y19	Z19	X20	Y20	Z20	X21	Y21	Z21	X22	Y22	Z22	X23	Y23	Z23	X24	Y24	Z24	X25	Y25	Z25	X26	Y26	Z26	X27	Y27	Z27	X28	Y28	Z28	X29	Y29	Z29	X30	Y30	Z30	X31	Y31	Z31	X32	Y32	Z32	X33	Y33	Z33	X34	Y34	Z34	X35	Y35	Z35	X36	Y36	Z36	X37	Y37	Z37	X38	Y38	Z38	X39	Y39	Z39	X40	Y40	Z40	X41	Y41	Z41	X42	Y42	Z42	X43	Y43	Z43	X44	Y44	Z44	X45	Y45	Z45	X46	Y46	Z46	X47	Y47	Z47	X48	Y48	Z48	X49	Y49	Z49	X50	Y50	Z50	X51	Y51	Z51	X52	Y52	Z52	X53	Y53	Z53	X54	Y54	Z54	X55	Y55	Z55	X56	Y56	Z56	X57	Y57	Z57	X58	Y58	Z58	X59	Y59	Z59	X60	Y60	Z60	X61	Y61	Z61	X62	Y62	Z62	X63	Y63	Z63	X64	Y64	Z64	X65	Y65	Z65	X66	Y66	Z66	X67	Y67	Z67	X68	Y68	Z68	X69	Y69	Z69	X70	Y70	Z70	X71	Y71	Z71	X72	Y72	Z72	X73	Y73	Z73	X74	Y74	Z74	X75	Y75	Z75	X76	Y76	Z76	X77	Y77	Z77	X78	Y78	Z78	X79	Y79	Z79	X80	Y80	Z80	X81	Y81	Z81	X82	Y82	Z82	X83	Y83	Z83	X84	Y84	Z84	X85	Y85	Z85	X86	Y86	Z86	X87	Y87	Z87	X88	Y88	Z88	X89	Y89	Z89	X90	Y90	Z90	X91	Y91	Z91	X92	Y92	Z92	X93	Y93	Z93	X94	Y94	Z94	X95	Y95	Z95	X96	Y96	Z96	X97	Y97	Z97	X98	Y98	Z98	X99	Y99	Z99	X100	Y100	Z100	X101	Y101	Z101	X102	Y102	Z102	X103	Y103	Z103	X104	Y104	Z104	X105	Y105	Z105	X106	Y106	Z106	X107	Y107	Z107	X108	Y108	Z108	X109	Y109	Z109	X110	Y110	Z110	X111	Y111	Z111	X112	Y112	Z112	X113	Y113	Z113	X114	Y114	Z114	X115	Y115	Z115	X116	Y116	Z116	X117	Y117	Z117	X118	Y118	Z118	X119	Y119	Z119	X120	Y120	Z120

180	2.98333	-155.36522	816.92279	-299.11078	-6.22415	821.61676	-301.60986	-81.79046	761.96307	-303.48468	-76.53775	845.27692	-363.30099	-56.20336	0.00000	55.58976	-56.20336	0.00000	-44.41023	-111.85169	463.28250	60.68811	21.26061	474.84534	57.09968	-146.85133	868.93695	-424.99213	-18.86863	871.47272	-425.70154	-83.06157	738.95557	-352.14972	-78.28945	935.77142	-323.55835	-242.49681	659.85773	-614.09967	-210.81812	763.77240	-883.99249	-219.22858	718.19983	-826.59875	56.78226	663.01343	-629.31708	30.39326	727.22449	-910.05963	26.61964	739.52173	-838.35425	-100.42874	464.07690	54.43330	9.78694	471.69513	50.31276	-187.45264	71.58755	-145.74831	-223.05731	69.24237	-132.06088	-242.49681	659.85773	-614.09967	-217.39903	738.41620	-892.01300	-184.13393	45.60971	-76.93696	-148.95419	499.15933	-13.34914	-198.31111	531.32452	27.57800	-247.86067	400.17157	-274.10074	-303.77765	411.12515	-244.69489	-104.58031	590.16901	119.18552	-271.14291	191.80490	-196.21785	-274.75803	208.55151	-150.12749	-289.24228	238.25333	-182.08562	-177.71376	739.08386	-345.65576	-295.83109	442.06476	-111.44411	-284.39542	385.79507	-101.22607	-281.28015	422.04269	-74.13119	-214.36215	45.48296	-287.26608	-189.62956	712.11163	-831.63782	-248.82758	724.28809	-821.55975	0.00000	0.00000	-0.00000	999.99994	0.00000	-0.00000	0.00000	0.00000	-999.99994	0.00000	999.99994	-0.00000	-219.22858	718.19983	-826.59875	-208.16788	35.16739	-285.53656	-212.83177	59.06514	-125.09708	-176.80507	26.22661	-73.35442	-170.96298	705.26025	-824.86639	-207.27588	764.66766	-812.53217	-224.47891	705.03522	-778.64954	-161.97069	753.17316	-885.25061	-201.79425	801.63403	-852.60675	-216.51877	732.88306	-845.09070	-187.05942	414.81738	-12.46891	-200.29913	713.28778	-826.45697	-236.87485	770.75592	-807.49304	-247.37106	709.46472	-773.82983	-192.60426	58.24393	-152.61259	-230.86269	689.02875	-720.34924	-50.54733	505.96133	-17.02818	-50.54733	0.00000	-17.02818	-56.20336	0.00000	-17.02818	-56.20336	100.00000	-17.02818	0.00000	0.00000	999.99994	-180.75337	739.76630	-248.57722	-50.55244	509.22946	-11.12210	-56.20336	545.64191	55.58976	49.14021	516.12030	-14.84921	-43.44815	461.41922	-98.66472	-58.38629	596.45532	-59.39506	86.72667	64.80733	-157.20143	115.72761	74.34219	-135.64355	56.78226	663.01343	-629.31708	24.07408	752.95856	-904.59680	80.11614	43.69010	-78.57941	47.85951	512.76331	-20.70723	80.00635	560.26813	24.60863	110.72402	400.34467	-287.86566	166.70781	414.25507	-273.43427	158.50847	225.06061	-208.90118	155.54034	232.41124	-159.04936	174.48428	256.37537	-187.46124	11.59062	738.82733	-358.64371	173.94559	461.49359	-110.99712	171.97861	400.20651	-124.57915	180.24135	427.13577	-87.37857	115.99407	47.18756	-282.30273	-3.61569	732.32190	-839.41266	56.85497	746.72150	-837.29584	26.61964	739.52173	-838.35425	-21.60031	726.48090	-836.16943	38.01094	694.35614	-856.52869	33.33340	722.49207	-791.82562	-17.75763	713.75452	-910.28363	43.61382	679.81854	-901.23401	27.80327	735.66455	-860.84521	5.61950	464.48740	46.01286	112.15393	33.49350	-281.05322	105.71347	59.95066	-123.80293	76.73795	23.23226	-76.11622	8.16987	736.15991	-841.56372	68.24625	701.55585	-855.47028	56.83875	728.05267	-790.91187	85.27962	59.69575	-157.36496	41.70095	701.26758	-733.83563	-61.85939	585.32251	128.20770	0.00000	-1.00000	-1.00000	0.00000	0.00000	-1.00000	0.00000	-1.00000	1.00000	0.00000	0.00000	1.00000	-148.95929	502.42743	-7.44305	47.85442	516.03143	-14.80114	-61.37984	582.09534	122.29858	0.00000	0.00000	-0.00000	-272.76996	172.73752	-168.59395	154.34808	190.70094	-173.89268	-293.50348	401.46899	-140.80917	176.56758	432.83679	-160.04596	0.00000	999.99994	-0.00000
181	3.00000	-155.68613	813.62119	-299.63457	-6.51781	818.14528	-302.14983	-81.98692	758.64042	-303.86460	-76.82167	841.38248	-364.04228	-56.24967	0.00000	56.11516	-56.24967	0.00000	-43.88483	-111.98914	460.93352	60.80194	21.13521	472.41283	57.39698	-147.12552	864.61966	-425.93474	-19.10541	866.98773	-426.66815	-83.50533	735.28426	-352.53306	-78.46535	932.21506	-325.07123	-242.91895	655.81286	-613.67295	-209.04769	756.92537	-884.24882	-218.83121	712.21269	-826.62394	56.30220	657.61761	-629.42693	30.17566	720.40472	-910.52813	26.42266	733.11306	-838.86665	-100.52632	461.62802	54.63870	9.79756	469.27502	50.58507	-187.44769	71.58911	-145.75965	-223.02668	69.25621	-132.05219	-242.91895	655.81286	-613.67295	-216.12294	731.70640	-892.05587	-184.11825	45.61958	-76.94076	-149.07848	497.07286	-13.04912	-198.48128	529.10818	28.12150	-247.85929	400.11441	-274.22483	-303.83399	410.89370	-244.79926	-104.66190	587.55894	119.72572	-271.14186	191.81538	-196.23375	-274.66255	208.58653	-150.15792	-289.18450	238.27988	-182.13028	-177.90421	735.51757	-345.66637	-295.89060	440.88972	-111.30484	-284.43999	384.52007	-101.40764	-281.35492	420.60762	-74.12246	-214.32325	45.47242	-287.27608	-189.57176	705.57556	-831.69925	-248.09067	718.84977	-821.54866	0.00000	0.00000	-0.00000	999.99994	0.00000	-0.00000	0.00000	0.00000	-999.99994	0.00000	999.99994	-0.00000	-218.83121	712.21269	-826.62394	-208.44520	35.28673	-285.80201	-213.04389	59.46954	-125.40335	-176.85741	26.85252	-73.63265	-170.82824	698.33515	-824.86891	-205.94233	758.53134	-812.89844	-224.26599	699.48750	-778.57698	-160.47676	745.10087	-885.17581	-199.22410	794.83527	-853.16403	-215.69528	726.54737	-845.09763	-187.18328	412.72746	-12.58562	-199.79567	706.84571	-826.38976	-235.20182	765.16843	-807.82316	-246.90060	704.34424	-773.71399	-192.74096	58.70800	-152.89543	-230.87507	684.01277	-720.14843	-50.57501	503.90050	-16.66844	-50.57501	0.00000	-16.66844	-56.24967	0.00000	-16.66844	-56.24967	100.00000	-16.66844	0.00000	0.00000	999.99994	-180.83011	736.72207	-248.47813	-50.58199	507.14019	-10.74670	-56.24967	543.21942	56.11516	49.11169	514.05035	-14.40976	-43.45316	459.75129	-98.51602	-58.40233	594.59696	-58.60204	86.90276	64.83932	-156.88303	115.75476	74.33521	-135.69177	56.30220	657.61761	-629.42693	23.89182	746.18738	-905.20722	80.10509	43.71682	-78.61359	47.92845	510.72816	-20.28775	79.75959	558.00430	24.86568	111.35814	400.51265	-287.89840	167.40864	414.19741	-273.23780	158.77055	225.01458	-208.76504	155.74411	232.36559	-158.88416	174.74273	256.33255	-187.37601	10.89356	735.05096	-359.39971	174.04534	460.60309	-110.47126	172.42474	399.39861	-124.48577	180.48760	426.11414	-87.12232	116.13503	47.18914	-282.34622	-3.83108	725.94313	-839.85314	56.67641	740.28300	-837.88015	26.42266	733.11306	-838.86665	-21.82374	720.17648	-836.64687	37.73848	687.83343	-856.80270	33.07358	716.30846	-792.24728	-18.00264	707.03205	-910.67983	43.29893	673.02176	-901.43801	27.60075	729.12380	-861.36164	5.66916	462.13183	46.18694	112.33403	33.46224	-281.10255	105.68190	60.08973	-123.88983	76.71210	23.38086	-76.19232	7.97381	729.79406	-842.12718	67.99222	695.00337	-855.81618	56.59298	721.85121	-791.40159	85.37423	59.79580	-157.42637	41.36243	695.36532	-734.14679	-61.92433	582.53833	128.89874	0.00000	-1.00000	-1.00000	0.00000	0.00000	-1.00000	0.00000	-1.00000	1.00000	0.00000	0.00000	1.00000	-149.08545	500.31252	-7.12739	47.92148	513.96783	-14.36602	-61.44314	579.33957	122.97432	0.00000	0.00000	-0.00000	-272.73645	172.77177	-168.61367	154.53066	190.66959	-173.75889	-293.53435	400.45612	-140.96418	176.97510	432.25572	-159.70420	0.00000	999.99994	-0.00000
182	3.01667	-155.98944	810.79115	-300.15321	-6.83012	815.07790	-302.74212	-82.06326	755.62484	-304.07432	-77.09599	837.97044	-364.76932	-56.17668	0.00000	56.63362	-56.17668	0.00000	-43.36638	-111.86681	459.08788	60.88967	21.27451	470.43288	57.70629	-147.36185	860.86294	-426.79653	-19.38533	863.01607	-427.56277	-83.83721	731.91288	-352.70835	-78.57851	929.08630	-326.46149	-243.46986	652.07581	-613.01380	-207.62594	750.53737	-884.41210	-218.52931	706.63916	-826.37107	55.67348	652.64674	-629.45620	30.10258	714.36285	-910.84832	26.39811	727.32851	-839.29643	-100.40389	459.48273	54.77478	10.10927	467.31903	50.94488	-187.40467	71.60730	-145.79284	-223.04736	69.26466	-132.06072	-243.46986	652.07581	-613.01380	-215.06856	725.35634	-891.98786	-184.11366	45.62920	-76.92040	-148.97610	495.31137	-12.90159	-198.62357	527.12843	28.53948	-248.11945	399.91272	-274.46115	-304.27245	410.60758	-244.93103	-104.79107	585.14491	120.29846	-271.24076	191.72763	-196.29638	-274.80850	208.53315	-150.23728	-289.34350	238.16597	-182.20295	-178.11619	732.45794	-345.55766	-296.16924	439.93656	-111.36207	-284.78023	383.49807	-101.80053	-281.65776	419.46341	-74.27157	-214.32464	45.48912	-287.26812	-189.52332	699.57312	-831.38025	-247.53532	713.70525	-821.36188	0.00000	0.00000	-0.00000	999.99994	0.00000	-0.00000	0.00000	0.00000	-999.99994	0.00000	999.99994	-0.00000	-218.52931	706.63916	-826.37107	-208.95046	35.45956	-286.20394	-213.55228	59.60011	-125.79902	-176.38751	27.90654	-74.14901	-170.73745	692.06332	-824.51173	-204.95524	752.85593	-812.96471	-224.15587	694.32974	-778.23784	-159.28623	737.77514	-884.98338	-197.21832	788.58142	-853.68246	-215.03461	720.70940	-844.97436	-186.95789	410.90926	-12.98635	-199.42247	700.94183	-826.07594	-233.96125	759.92200	-807.95556	-246.59990	699.52519	-773.42398	-192.62937	59.48870	-153.36046	-230.99958	679.35747	-719.69241	-50.30364	502.30805	-16.32114	-50.30364	0.00000	-16.32114	-56.17668	-0.00000	-16.32114	-56.17668	100.00000	-16.32114	0.00000	0.00000	999.99994	-180.87024	734.20882	-248.37811	-50.32513	505.51413	-10.38119	-56.17668	541.18239	56.63362	49.36486	512.58294	-13.83598	-42.95184	458.63622	-98.40440	-58.18659	593.22971	-57.75378	87.01460	64.89201	-156.93864	115.81944	74.33311	-135.66714	55.67348	652.64674	-629.45620	23.94433	740.17020	-905.62386	80.10811	43.74852	-78.60495	48.36883	509.30475	-19.74069	79.64728	555.99598	25.36948	112.51729	400.01412	-287.60895	168.41492	414.17585	-272.78365	159.26735	224.96700	-208.51870	156.14051	232.31248	-158.65534	175.24588	256.26643	-187.04567	10.44176	731.36789	-359.85902	174.37907	459.89012	-109.82759	173.12292	398.76647	-124.17940	180.96522	425.34090	-86.56440	116.28729	47.20471	-282.35420	-3.89992	720.30381	-840.30998	56.69614	734.35317	-838.28296	26.39811	727.32851	-839.29643	-21.91169	714.63116	-837.07565	37.52005	681.91397	-857.01112	32.91390	710.70664	-792.59253	-18.14082	701.22699	-910.96578	42.99029	666.94803	-901.58915	27.55871	723.26640	-861.71325	6.05989	460.27032	46.37983	112.42422	33.41420	-281.18091	105.72057	60.16259	-123.99090	76.65083	23.54134	-76.28692	7.94945	724.07669	-842.54263	67.81807	688.93863	-855.99761	56.46811	716.13503	-791.72077	85.46604	59.90710	-157.50029	41.03580	689.98761	-734.37630	-62.04972	580.05675	129.58837	0.00000	-1.00000	-1.00000	0.00000	0.00000	-1.00000	0.00000	-1.00000	1.00000	0.00000	0.00000	1.00000	-148.99759	498.51746	-6.96163	48.34734	512.51081	-13.80073	-61.55202	576.89248	123.64681	0.00000	0.00000	-0.00000	-272.84881	172.68635	-168.66898	154.88393	190.62913	-173.52189	-293.81817	399.61351	-141.22751	177.63306	431.85029	-159.17365	0.00000	999.99994	-0.00000
183	3.03333	-156.22992	808.34958	-300.59822	-7.06564	812.55163	-303.33717	-82.15164	753.13343	-304.17569	-77.35571	835.13730	-365.42297	-56.36409	0.00000	57.01507	-56.36409	0.00000	-42.98492	-112.21273	457.10404	60.95318	20.94537	468.31380	57.99978	-147.64578	857.72285	-427.50880	-19.66818	859.73191	-428.41028	-84.15735	729.10143	-352.79220	-78.72365	926.44124	-327.63480	-244.09669	648.50006	-612.36633	-206.69924	744.92509	-884.32973	-218.36958	701.60835	-826.03302	55.07624	648.24249	-629.50878	30.19542	709.00092	-911.15829	26.50345	722.11455	-839.65207	-100.64956	457.63573	54.88183	9.77591	465.35322	51.15909	-187.49243	71.54714	-145.77257	-223.06120	69.26451	-132.02639	-244.09669	648.50006	-612.36633	-214.39510	719.78381	-891.74871	-184.10211	45.61467	-76.89640	-149.08755	493.65841	-12.68255	-198.75104	525.43544	28.87204	-248.61837	399.67827	-274.65140	-304.81882	410.29849	-245.02955	-104.91672	583.01909	120.79799	-271.45401	191.54739	-196.33432	-275.12978	208.36709	-150.31429	-289.65341	237.95674	-182.24162	-178.42666	729.86353	-345.39019	-296.61603	439.15898	-111.39490	-285.30733	382.64701	-102.05558	-282.14011	418.53566	-74.39226	-214.33440	45.53624	-287.22467	-189.44134	694.19765	-830.92754	-247.29781	709.01917	-821.13862	0.00000	0.00000	-0.00000	999.99994	0.00000	-0.00000	0.00000	0.00000	-999.99994	0.00000	999.99994	-0.00000	-218.36958	701.60835	-826.03302	-209.18764	35.98098	-286.68236	-213.74416	59.72657	-126.21719	-175.67114	28.79952	-74.76279	-170.73587	686.53953	-824.04303	-204.32131	747.75404	-812.87165	-224.17271	689.62900	-777.83742	-158.52576	731.53769	-884.63332	-195.91081	783.05480	-853.83815	-214.63179	715.48187	-844.70431	-187.16522	409.30008	-13.01226	-199.31757	695.72160	-825.72897	-233.24954	755.16486	-807.97731	-246.56155	695.09975	-773.12081	-192.30111	60.26390	-153.89969	-231.23312	675.05417	-719.19967	-50.49338	500.54908	-16.00642	-50.49338	0.00000	-16.00642	-56.36409	0.00000	-16.00642	-56.36409	100.00000	-16.00642	0.00000	0.00000	999.99994	-180.89648	732.08825	-248.21299	-50.51584	503.73971	-10.05816	-56.36409	539.22560	57.01507	49.18446	510.70761	-13.41932	-43.14294	457.08095	-98.19783	-58.24491	591.58671	-57.20854	87.44354	64.70904	-157.26860	115.90303	74.31856	-135.66964	55.07624	648.24249	-629.50878	24.21060	734.85243	-905.98729	80.09550	43.76013	-78.61336	48.10079	507.43969	-19.33028	79.69084	554.12587	26.01701	113.59644	399.55083	-287.11094	169.71794	414.06794	-272.29669	159.96547	224.82110	-208.24439	156.73215	232.16043	-158.42942	175.90131	256.09657	-186.61823	10.11195	728.33927	-360.19424	174.96543	459.19626	-109.07902	173.99960	398.16294	-123.59899	181.67521	424.61723	-85.90842	116.42888	47.23200	-282.36748	-3.83899	715.30285	-840.71603	56.84589	728.92624	-838.58822	26.50345	722.11455	-839.65207	-21.89034	709.74265	-837.42116	37.34651	676.54669	-857.14493	32.86499	705.66742	-792.86511	-18.13228	696.17852	-911.30199	42.76533	661.51987	-901.80165	27.65946	718.00849	-862.04171	5.69055	458.28223	46.63382	112.45485	33.21644	-281.15431	105.87990	59.89753	-123.94739	76.52671	23.45225	-76.28214	8.03736	718.94873	-842.85160	67.68893	683.35838	-856.08103	56.45108	710.92569	-791.94250	85.53487	59.80060	-157.47595	40.78985	685.17846	-734.58042	-62.23481	577.90212	130.03658	0.00000	-1.00000	-1.00000	0.00000	0.00000	-1.00000	0.00000	-1.00000	1.00000	0.00000	0.00000	1.00000	-149.11000	496.84907	-6.73429	48.07833	510.63032	-13.38203	-61.73714	574.75260	124.08715	0.00000	0.00000	-0.00000	-273.04694	172.51735	-168.74038	155.36837	190.52087	-173.28676	-294.37154	398.90958	-141.41304	178.52819	431.38729	-158.49863	0.00000	999.99994	-0.00000
